<?xml version="1.0" encoding="utf-8"?>
<!-- Generator: Adobe Illustrator 25.0.0, SVG Export Plug-In . SVG Version: 6.00 Build 0)  -->
<svg version="1.1" id="Capa_1" xmlns="http://www.w3.org/2000/svg" xmlns:xlink="http://www.w3.org/1999/xlink" x="0px" y="0px"
	 viewBox="0 0 390.7 414" style="enable-background:new 0 0 390.7 414;" xml:space="preserve">
<style type="text/css">
	.st0{fill-rule:evenodd;clip-rule:evenodd;fill:#24893D;}
	.st1{opacity:0.4;}
	.st2{fill-rule:evenodd;clip-rule:evenodd;fill:#006100;}
	.st3{fill-rule:evenodd;clip-rule:evenodd;fill:#41A356;}
	.st4{clip-path:url(#SVGID_1_);}
	.st5{fill:#AC752C;}
	.st6{fill:#7D551F;}
	.st7{fill:#FFB300;}
	.st8{fill:#FFD54F;}
	.st9{clip-path:url(#SVGID_2_);}
	.st10{fill:#A16552;}
	.st11{fill:#F5DCB4;}
	.st12{fill:#4E3F3F;}
	.st13{fill:#E6646E;}
	.st14{fill:#5D5360;}
	.st15{fill:#FFFFFF;}
	.st16{opacity:0.35;fill:#4E3F3F;}
	.st17{clip-path:url(#SVGID_3_);}
	.st18{opacity:0.46;}
</style>
<g>
	<g>
		<g>
			<g>
				<path class="st0" d="M127.6,299c10.6,4.6,20.7,8.9,30.2,14.7c-1.3,0.5-2.5,0.3-3.6-0.2c-7.9-2.9-15.7-6.1-23.7-8.9
					c-7.6-2.6-15.3-2.6-22.9,0.2c-3.6,1.3-6.2,4.3-10.4,5.3c5.4,2.2,10.5,3.5,15,6.3c-0.9,0.2-1.7-0.1-2.5-0.3
					c-4.5-1.2-9-2.8-13.6-3.8c-2.8-0.6-5.2-0.2-7.7,1.1c-4.8,2.5-8.9,6.1-13.9,8.2c-0.2,0.1-0.7,0.1-0.6,0.5
					c0.1,0.3,0.3,0.4,0.7,0.5c5.4,0.8,10.6,2.7,15.8,4.3c4.8,1.5,9.5,3.4,14.2,5.2c1.4,0.5,3,0.6,4.4,1.9c-0.6,0.1-1,0.2-1.3,0.2
					c-6-0.5-12.1-1.3-18-2.7c-5.5-1.3-10.8-3.2-16.3-4.3c-2.7-0.5-5.4-1.6-8-0.3c-5.2,2.6-10.1,5.8-14.8,9.1
					c-0.5,0.3-1.4,0.7-1.3,1.4c0.1,0.9,1.2,0.8,1.8,0.9c4.3,0.8,8.6,1.5,12.8,2.9c1.9,0.6,3.9,1,5.7,2.5c-0.4,0.2-0.7,0.3-0.9,0.3
					c-4-0.1-8-0.1-11.9-0.5c-3-0.3-6.1-0.5-9.1-0.4c-2,0-4,0-5.9,1.3c-5.3,3.7-9.5,8.2-13.1,13.5c-0.3,0.4-0.8,0.7-0.6,1.3
					c0.3,0.6,0.9,0.4,1.5,0.4c2.9,0,5.7,0.1,8.6,0.2c0.7,0,1.8,0.1,1.9,0.8c0.2,0.8-0.8,1-1.4,1.2c-3.2,1.3-6.4,2.5-9.6,3.8
					c-1.2,0.4-2.2,1.1-3,2.1c-2.6,3.1-4.1,6.9-6,10.4c-1.3,2.5-2.7,5-3.2,7.9c-0.2,1-0.2,1.9,1.2,2.2c0.5,0.1,1.3-0.1,1.4,0.6
					c0.1,0.8-0.7,1-1.2,1.5c-1.7,1.6-4,2.4-5.2,4.5c-0.6,1-0.8,2.1-1.5,3.1c-1.3,1.9-2.3,4-3.3,6.1c-0.5,1,0,1.3,0.9,1.4
					c0.6,0,1.1-0.1,1.6-0.2c2.2-0.4,4.4-1,6.5-1c4.3,0.1,7.5-1.5,10-4.9c0.6-0.9,1.4-1.9,2.7-1.6c1.2,0.3,1.6,1.4,1.6,2.6
					c0,0.2,0.1,0.4,0.1,0.5c0.1,1.9,1.2,2.2,2.8,1.8c0.6-0.2,1.2-0.3,1.7-0.6c1.1-0.6,2.1-0.5,3.3-0.3c3.2,0.5,5.1,1,7-3.4
					c1.5-3.4,3.2-6.7,4.8-10.1c0.3-0.5,0.6-1.3,1.2-1.1c0.6,0.2,0.4,0.9,0.4,1.4c0,3.5-0.9,6.9-1.5,10.4c-0.3,1.7,0.4,2.5,1.9,2.3
					c3.3-0.5,6.7-0.4,10-1.2c2.8-0.7,5.1-2,6.1-4.9c1.3-3.7,2.8-7.4,4.2-11.1c0.1-0.3,0.1-1.5,1.1-1c0.6,0.3,1.3,0.5,1.3,1.5
					c0.2,4.9-1.2,9.4-4.3,13.2c-0.3,0.4-1,1-0.5,1.6c0.4,0.5,1.1,0.2,1.7,0.2c4.5-0.4,9-1.2,13.4-2c5.5-1.1,9.7-3.7,11.4-9.5
					c1.7-5.7,3.5-11.4,5.7-16.9c0.4-0.9,0.7-2,1.7-2.6c0.9,1.5,0.1,2.9-0.1,4.3c-1.2,7.4-5.2,13.9-6.2,21.3
					c-0.2,1.7-0.1,2.1,1.5,1.7c2.2-0.5,4.4-0.9,6.6-1.6c2.5-0.8,5.2-1.3,7.1-3.4c1-1.1,1.6-2.6,3.6-2.6c0.6,0,1.2-0.9,1.5-1.5
					c0.5-1,1.1-2,1.5-3.1c2.8-6.9,4.6-14.1,7.1-21c1.6-4.5,2.8-9,5.1-13.2c0.2-0.4,0.3-1.1,1-0.9c0.5,0.1,0.7,0.7,0.6,1.2
					c0,0,0,0,0,0c-0.1,0.2-0.1,0.5-0.2,0.7c-1,6.6-1.6,13.7-4.2,19.9c-0.2,0.5-0.3,0.9-0.3,1.3c-1.6,4.9-3.5,9.6-5.5,14.2
					c-0.1,0.3-0.6,0.7-0.1,1.1c0.4,0.4,0.9,0.2,1.4,0.1c3-1,6.1-2.1,8.8-3.6c3.3-1.8,6.2-4,7.7-7.7c0.9-2.2,1.9-4.3,3-6.4
					c2.3-4.2,4.4-8.4,7.4-12.1c0.3-0.4,0.6-1,1.1-0.7c0.5,0.3,0.2,0.9,0,1.3c-1.3,5.1-3.6,9.9-6.1,14.6c-1.2,2.3-2.9,4.2-4.4,6.2
					c-0.3,0.4-0.8,0.7-0.6,1.2c0.3,0.6,1,0.2,1.5,0.3c0.5,0.1,1,0.1,1.5,0c9.2-0.8,16.2-5.4,21.7-12.6c3.5-4.5,5.4-9.9,7.7-15
					c1.1-2.5,2.1-5.1,3.7-7.5c0.3-0.4,0.5-0.9,1.1-0.7c0.5,0.2,0.2,0.8,0.3,1.1c0.4,1-0.2,1.9-0.4,2.8c-1.5,8.3-4.8,15.9-9,23.1
					c-0.1,0.2-0.6,0.3-0.3,0.7c0.2,0.4,0.6,0.4,1,0.3c3.4-1.1,6.9-2.3,9.1-5.5c2.3-3.3,4.6-6.7,6.8-10c0.1-0.3,0.2-0.4,0.5-0.3
					c0,0-0.1,0.3-0.1,0.4c-0.4,3.4-2.6,6.1-4.1,9.3c3.9-1.2,6.7-3.4,8.5-6.5c3.4-5.6,6.3-11.5,9.9-17c0.3-0.4,0.5-1,1-0.7
					c0.4,0.2,0.2,0.7,0.1,1.2c-0.5,1.3-0.9,2.6-1.3,4c-0.8,2.7-1.6,5.4-2.4,8.4c5-1.3,9.2-3.4,13.2-5.8c3.2-1.9,5.5-4.7,6.6-8.4
					c0.6-1.8,1.1-3.6,1.9-5.3c0.3-0.7,0.3-1.9,1.2-1.8c0.8,0.1,0.8,1.3,0.8,2c-0.1,1.4,0.5,1.2,1.4,0.8c2.2-1.1,4.5-2.3,6.8-3.3
					c1.2-0.5,1.7-1.3,2-2.6c0.6-3.1,0.6-6.2,1-9.4c0.6-4.8,1.3-9.6,3-14.2c0.5-1.2,1.2-1.9,2.5-2.4c5.9-2.2,11.8-4.6,17.7-6.9
					c0.8-0.3,1.7-0.5,1.1-1.8c-0.5-1.1-1.1-1.4-2.2-0.8c-5.2,2.3-10.4,4.4-15.5,6.7c-2.2,1-4.2,0.9-6.3,0.1
					c-1.6-0.7-3.3-1.3-4.8-2.2c-4.3-2.6-8.3-5.5-12.2-8.7c-3.3-2.7-7.4-2.7-10.3,0.5c-1.3,1.4-2.2,1.3-3.7,0.4
					c-3.1-1.8-6.4-3.2-9.9-3.8c-5.7-1-11.4-0.1-16.9,1.7c0,0.1-0.1,0.2-0.1,0.3c0.2,0.5,0.7,0.9,1,1.3c0.5,0.5,1.2,1.1,0.6,1.8
					c-0.5,0.6-1.2,0.4-1.9-0.1c-2.7-2.2-5.8-3.2-9.3-2.1c-2.2,0.7-4.5,1.2-7,1.9c6.8,3.9,13.4,7.4,19.6,11.5
					c1.2,0.8,2.7,1.3,3.2,3.2c-4.1-1-7.6-2.9-11.1-4.6c-5.3-2.6-10.4-5.6-15.7-8.1c-5.1-2.4-10.4-3.7-15.6,0
					c-2.2,1.6-4.7,2.3-7.3,2.7C131.3,298.6,129.7,298.3,127.6,299z"/>
				<path class="st0" d="M176.4,290.8c-0.1-0.1-0.2-0.2-0.3-0.3c0.1,0,0.3,0,0.4,0C176.5,290.5,176.4,290.6,176.4,290.8z"/>
				<path class="st0" d="M187.1,356.7c0.1-0.3,0.2-0.4,0.5-0.3c0,0-0.1,0.3-0.1,0.4C187.3,356.8,187.2,356.8,187.1,356.7z"/>
			</g>
			<g class="st1">
				<path class="st2" d="M74.7,353.5c-12.2,6.3-23.9,13.4-35,21.5c-7.2,5.2-13.4,10.1-19.1,15.6c-3.4,3.3-6.8,6.7-9.6,10.5
					c-0.1,0.2-0.3,0.3-0.3,0.5c-0.1,0.1-0.1,0.2-0.2,0.4c-0.4,0.7-0.9,1.5-1.3,2.3c-0.1,0.2-0.2,0.6-0.3,1c0.1,0,0.2,0,0.3,0
					c0.6,0,1.1-0.1,1.6-0.2c2.2-0.4,4.4-1,6.5-1c4.3,0.1,7.5-1.5,10-4.9c0.6-0.9,1.4-1.9,2.7-1.6c1.2,0.3,1.6,1.4,1.6,2.6
					c0,0.2,0.1,0.4,0.1,0.5c0.1,1.9,1.2,2.2,2.8,1.8c0.6-0.2,1.2-0.3,1.7-0.6c1.1-0.6,2.1-0.5,3.3-0.3c3.2,0.5,5.1,1,7-3.4
					c1.5-3.4,3.2-6.7,4.8-10.1c0.3-0.5,0.6-1.3,1.2-1.1c0.6,0.2,0.4,0.9,0.4,1.4c0,3.5-0.9,6.9-1.5,10.4c-0.3,1.7,0.4,2.5,1.9,2.3
					c3.3-0.5,6.7-0.4,10-1.2c2.8-0.7,5.1-2,6.1-4.9c1.3-3.7,2.8-7.4,4.2-11.1c0.1-0.3,0.1-1.5,1.1-1c0.6,0.3,1.3,0.5,1.3,1.5
					c0.2,4.9-1.2,9.4-4.3,13.2c-0.3,0.4-1,1-0.5,1.6c0.4,0.5,1.1,0.2,1.7,0.2c4.5-0.4,9-1.2,13.4-2c5.5-1.1,9.7-3.7,11.4-9.5
					c1.7-5.7,3.5-11.4,5.7-16.9c0.4-0.9,0.7-2,1.7-2.6c0.9,1.5,0.1,2.9-0.1,4.3c-1.2,7.4-5.2,13.9-6.2,21.3
					c-0.2,1.7-0.1,2.1,1.5,1.7c2.2-0.5,4.4-0.9,6.6-1.6c2.5-0.8,5.2-1.3,7.1-3.4c1-1.1,1.6-2.6,3.6-2.6c0.6,0,1.2-0.9,1.5-1.5
					c0.5-1,1.1-2,1.5-3.1c2.8-6.9,4.6-14.1,7.1-21c1.6-4.5,2.8-9,5.1-13.2c0.2-0.4,0.3-1.1,1-0.9c0.5,0.1,0.7,0.7,0.6,1.2
					c0,0,0,0,0,0c-0.1,0.2-0.1,0.5-0.2,0.7c-1,6.6-1.6,13.7-4.2,19.9c-0.2,0.5-0.3,0.9-0.3,1.3c-1.6,4.9-3.5,9.6-5.5,14.2
					c-0.1,0.3-0.6,0.7-0.1,1.1c0.4,0.4,0.9,0.2,1.4,0.1c3-1,6.1-2.1,8.8-3.6c3.3-1.8,6.2-4,7.7-7.7c0.9-2.2,1.9-4.3,3-6.4
					c2.3-4.2,4.4-8.4,7.4-12.1c0.3-0.4,0.6-1,1.1-0.7c0.5,0.3,0.2,0.9,0,1.3c-1.3,5.1-3.6,9.9-6.1,14.6c-1.2,2.3-2.9,4.2-4.4,6.2
					c-0.3,0.4-0.8,0.7-0.6,1.2c0.3,0.6,1,0.2,1.5,0.3c0.5,0.1,1,0.1,1.5,0c9.2-0.8,16.2-5.4,21.7-12.6c3.5-4.5,5.4-9.9,7.7-15
					c1.1-2.5,2.1-5.1,3.7-7.5c0.3-0.4,0.5-0.9,1.1-0.7c0.5,0.2,0.2,0.8,0.3,1.1c0.4,1-0.2,1.9-0.4,2.8c-1.5,8.3-4.8,15.9-9,23.1
					c-0.1,0.2-0.6,0.3-0.3,0.7c0.2,0.4,0.6,0.4,1,0.3c3.4-1.1,6.9-2.3,9.1-5.5c2.3-3.3,4.6-6.7,6.8-10c0.1-0.3,0.2-0.4,0.5-0.3
					c0,0-0.1,0.3-0.1,0.4c-0.4,3.4-2.6,6.1-4.1,9.3c3.9-1.2,6.7-3.4,8.5-6.5c3.4-5.6,6.3-11.5,9.9-17c0.3-0.4,0.5-1,1-0.7
					c0.4,0.2,0.2,0.7,0.1,1.2c-0.5,1.3-0.9,2.6-1.3,4c-0.8,2.7-1.6,5.4-2.4,8.4c5-1.3,9.2-3.4,13.2-5.8c3.2-1.9,5.5-4.7,6.6-8.4
					c0.6-1.8,1.1-3.6,1.9-5.3c0.3-0.7,0.3-1.9,1.2-1.8c0.8,0.1,0.8,1.3,0.8,2c-0.1,1.4,0.5,1.2,1.4,0.8c2.2-1.1,4.5-2.3,6.8-3.3
					c1.2-0.5,1.7-1.3,2-2.6c0.6-3.1,0.6-6.2,1-9.4c0.6-4.8,1.3-9.6,3-14.2c0.5-1.2,1.2-1.9,2.5-2.4c5.9-2.2,11.8-4.6,17.7-6.9
					c0.6-0.2,1.3-0.4,1.3-1C198.2,318.2,133.6,329.4,74.7,353.5z"/>
				<path class="st2" d="M187.1,356.7c0.1-0.3,0.2-0.4,0.5-0.3c0,0-0.1,0.3-0.1,0.4C187.3,356.8,187.2,356.8,187.1,356.7z"/>
			</g>
		</g>
		<path class="st3" d="M237,303.7c-19.8,8.6-41.9,11.8-62.9,16.4c-6.4,1.4-12.9,2.8-19.3,4.4c-0.1-0.1-0.3-0.1-0.7-0.1
			c-10.4,0.1-18.1-5.6-27.4-9.3c-0.2-0.1-1.3,0.1-1,0.3c3.6,3.5,8.9,5.6,13.5,7.4c3.6,1.4,7.6,2.6,11.5,2.6
			c-13.8,3.3-27.5,7.1-40.7,11.7c-19.4,6.8-37.8,15.2-55.5,25.7c-7.2,4.3-14.3,8.8-21,13.8c-6.3,4.7-12.9,10.4-16.2,17.6
			c-0.2,0.4,1.5,0.4,1.7,0c9.9-13.8,25.1-23,39.5-31.4c-1.8,2.8-2.6,6.6-2.9,9.5c0,0.3,1.3,0.2,1.4,0c1.9-4.3,2.8-8.4,6-12
			c17.5-9.9,36.2-18,55.5-23.9c1.7-0.5,3.3-1,5-1.5c-6.2,7.4-8.9,19.5-8.7,28.4c0,0.4,1.6,0.3,1.7-0.1c1.6-5.1,2.1-10.4,3.5-15.6
			c1.4-5.2,3.9-9.3,6.8-13.7c18.5-5.3,37.3-9.7,56.1-13.7c4.9-1,9.9-2.1,14.8-3.1c-3,2.4-5.2,5.8-7,9.2c-2.3,4.2-4.6,9.3-5.3,14.1
			c-0.1,0.5,1.9,0.3,2.1-0.1c2.6-3.9,3.9-8.7,5.9-12.9c2.1-4.5,4.8-8,8.4-11.2c3.9-0.9,7.8-1.8,11.6-2.7c9-2.3,18.5-4.5,26.8-8.7
			C242.6,303.7,238,303.3,237,303.7z"/>
	</g>
	<g>
		<g>
			<g>
				<path class="st0" d="M310.9,169.1c-10.7,4.2-21,8.4-31.7,10.9c0.6-1.3,1.6-2,2.6-2.4c7.7-3.5,15.5-6.8,23.1-10.5
					c7.2-3.5,12.7-9,16.1-16.4c1.6-3.4,1.3-7.4,3.6-11.1c-5.4,2.3-9.9,4.9-15,6.1c0.5-0.8,1.3-1.2,2-1.6c4.1-2.4,8.3-4.4,12.3-6.9
					c2.4-1.5,3.8-3.6,4.7-6.3c1.7-5.1,2-10.6,4-15.6c0.1-0.2,0.4-0.5,0-0.8c-0.3-0.1-0.5-0.1-0.8,0.1c-4.4,3.2-9.4,5.6-14.2,8.1
					c-4.5,2.3-9.1,4.3-13.8,6.4c-1.4,0.6-2.6,1.7-4.4,1.8c0.4-0.5,0.5-0.8,0.8-1.1c4.6-3.9,9.5-7.6,14.6-10.8
					c4.8-2.9,9.9-5.3,14.5-8.5c2.2-1.5,4.9-2.7,5.9-5.5c1.8-5.5,3-11.2,4.1-16.9c0.1-0.6,0.5-1.5-0.1-1.9c-0.7-0.6-1.4,0.3-1.9,0.6
					c-3.6,2.5-7.1,5-11.1,7c-1.8,0.9-3.5,2.1-5.7,2.3c0.2-0.4,0.2-0.7,0.4-0.9c2.9-2.7,5.7-5.5,8.8-8.1c2.4-1.9,4.7-3.9,6.7-6.1
					c1.3-1.4,2.9-2.8,3.3-5.1c1.1-6.3,0.9-12.6-0.3-18.8c-0.1-0.5,0.1-1.1-0.5-1.3c-0.6-0.2-1,0.4-1.4,0.7c-2.1,2-4.1,4-6.2,5.9
					c-0.5,0.5-1.3,1.2-2,0.8c-0.7-0.4-0.2-1.2,0.1-1.8c1.4-3.2,2.7-6.3,4.1-9.4c0.5-1.2,0.8-2.3,0.7-3.6c-0.4-4-2-7.7-3.1-11.6
					c-0.8-2.7-1.7-5.4-3.3-7.8c-0.6-0.9-1.2-1.5-2.4-0.7c-0.4,0.3-0.8,1-1.4,0.6c-0.6-0.5-0.2-1.2-0.2-1.9c0.1-2.3,1.1-4.5,0.5-6.9
					c-0.3-1.1-0.9-2.1-1.1-3.2c-0.4-2.3-1.2-4.5-1.9-6.7c-0.3-1-0.9-1-1.6-0.3c-0.4,0.4-0.7,0.8-1,1.3c-1.3,1.8-2.3,3.8-3.9,5.3
					c-3.2,2.9-4.3,6.4-3.6,10.5c0.2,1.1,0.3,2.4-0.7,3c-1.1,0.6-2.1,0.1-3-0.7c-0.1-0.1-0.3-0.2-0.5-0.3c-1.4-1.2-2.4-0.8-3.2,0.7
					c-0.3,0.5-0.6,1.1-0.8,1.6c-0.4,1.2-1.1,1.9-2.1,2.6c-2.6,1.9-4.3,2.9-2.6,7.3c1.4,3.4,2.5,7,3.7,10.5c0.2,0.5,0.5,1.3-0.1,1.7
					c-0.5,0.3-0.9-0.3-1.3-0.7c-2.5-2.5-4.3-5.5-6.3-8.4c-1-1.4-2-1.5-3-0.3c-2,2.7-4.5,5-6.2,7.9c-1.5,2.5-2.2,5-0.8,7.8
					c1.7,3.6,3.3,7.2,4.9,10.9c0.1,0.3,1,1.1-0.1,1.5c-0.6,0.2-1.3,0.6-2-0.1c-3.6-3.4-5.8-7.4-6.3-12.4c-0.1-0.5,0.1-1.4-0.7-1.5
					c-0.6-0.1-1,0.6-1.4,1.1c-2.9,3.5-5.5,7.2-8,10.9c-3.1,4.6-4.2,9.5-1.4,14.8c2.8,5.2,5.6,10.5,7.9,16c0.4,0.9,0.9,1.9,0.7,3
					c-1.6-0.4-2.1-1.9-3-3.1c-4.4-6-6.1-13.5-10.7-19.5c-1-1.3-1.4-1.5-2.3-0.1c-1.2,1.9-2.5,3.8-3.5,5.8c-1.2,2.3-2.7,4.6-2.6,7.4
					c0.1,1.5,0.7,3-0.7,4.4c-0.4,0.4-0.2,1.4,0,2.1c0.4,1.1,0.7,2.2,1.1,3.3c2.9,6.8,6.7,13.2,9.9,19.9c2,4.3,4.4,8.4,5.8,12.9
					c0.1,0.4,0.5,1,0,1.3c-0.5,0.3-1-0.1-1.3-0.4c0,0,0,0,0,0c-0.1-0.2-0.2-0.4-0.4-0.6c-4-5.3-8.6-10.8-11.1-17
					c-0.2-0.5-0.4-0.8-0.7-1.2c-2.3-4.6-4.3-9.3-6.2-14c-0.1-0.3-0.1-0.9-0.7-0.9c-0.6,0-0.8,0.5-1,0.9c-1.4,2.9-2.8,5.8-3.7,8.8
					c-1,3.6-1.6,7.3,0,10.9c0.9,2.2,1.7,4.4,2.4,6.6c1.3,4.5,2.8,9.1,3.3,13.8c0,0.5,0.3,1.1-0.3,1.3c-0.5,0.2-0.7-0.5-0.9-0.9
					c-2.7-4.6-4.5-9.5-6-14.6c-0.7-2.5-0.9-5-1.3-7.5c-0.1-0.5,0.1-1.1-0.4-1.3c-0.6-0.2-0.8,0.6-1.2,0.8c-0.4,0.3-0.7,0.7-1,1
					c-5.9,7.1-7.6,15.3-6.4,24.2c0.7,5.7,3.2,10.8,5.2,16.1c1,2.6,2.1,5.1,2.7,7.9c0.1,0.5,0.3,1-0.3,1.3c-0.5,0.2-0.7-0.4-1-0.5
					c-1-0.4-1.2-1.5-1.7-2.2c-4.8-6.9-7.8-14.6-9.9-22.7c-0.1-0.3,0.2-0.7-0.3-0.7c-0.4-0.1-0.7,0.1-0.9,0.5
					c-1.6,3.2-3.3,6.5-2.6,10.3c0.8,4,1.5,8,2.3,11.9c0.1,0.2,0.1,0.4-0.1,0.5c0,0-0.1-0.2-0.2-0.4c-2.2-2.7-2.5-6.1-3.7-9.5
					c-1.9,3.6-2.4,7.1-1.5,10.6c1.6,6.3,3.7,12.6,5,19c0.1,0.5,0.4,1-0.2,1.2c-0.4,0.1-0.7-0.3-0.9-0.8c-0.6-1.3-1.2-2.5-1.9-3.7
					c-1.3-2.5-2.7-4.9-4.2-7.6c-2.6,4.5-4.1,8.9-5.2,13.5c-0.9,3.6-0.5,7.2,1.2,10.6c0.8,1.7,1.7,3.3,2.4,5.1
					c0.3,0.7,1.2,1.6,0.4,2.1c-0.6,0.5-1.5-0.3-2-0.9c-0.9-1.1-1.2-0.5-1.5,0.4c-0.8,2.4-1.5,4.8-2.5,7.1c-0.5,1.2-0.3,2.2,0.4,3.2
					c1.8,2.6,4,4.8,5.9,7.3c3,3.8,5.9,7.7,7.9,12.2c0.5,1.2,0.5,2.2-0.1,3.5c-2.6,5.7-5.1,11.6-7.6,17.3c-0.3,0.8-0.9,1.6,0.5,2
					c1.2,0.4,1.7,0.2,2.2-1c2-5.3,4.3-10.4,6.2-15.7c0.8-2.3,2.4-3.6,4.4-4.5c1.6-0.7,3.3-1.4,5-1.8c4.9-1.2,9.8-2,14.8-2.4
					c4.2-0.4,7.1-3.4,6.9-7.6c-0.1-1.9,0.6-2.5,2.3-2.9c3.5-0.9,6.8-2.2,9.7-4.3c4.8-3.4,8.1-8,10.7-13.2c0-0.1-0.1-0.2-0.1-0.3
					c-0.5-0.2-1.1-0.1-1.6-0.2c-0.7,0-1.6,0.1-1.7-0.9c-0.1-0.8,0.5-1.1,1.4-1.2c3.5-0.4,6.4-1.8,8.1-5.1c1.1-2.1,2.3-4,3.6-6.3
					c-7.6,2-14.7,4.2-22,5.7c-1.4,0.3-2.8,1-4.5,0c3.6-2.2,7.4-3.3,11.1-4.6c5.6-1.9,11.3-3.4,16.8-5.4c5.3-1.9,10-4.7,11-11
					c0.4-2.7,1.7-5,3.2-7.1C308.5,172,309.8,171,310.9,169.1z"/>
				<path class="st0" d="M282.2,209.4c0.1,0,0.3,0,0.4,0c-0.1,0.1-0.2,0.2-0.3,0.3C282.3,209.6,282.2,209.5,282.2,209.4z"/>
				<path class="st0" d="M227.9,170.3c0.1,0.2,0.1,0.4-0.1,0.5c0,0-0.1-0.2-0.2-0.4C227.7,170.4,227.8,170.4,227.9,170.3z"/>
			</g>
			<g class="st1">
				<path class="st2" d="M309.7,93.1c4.2-13,7.5-26.4,9.6-40c1.4-8.8,2.3-16.6,2.5-24.6c0.1-4.7,0.1-9.6-0.7-14.2
					c0-0.2-0.1-0.4-0.1-0.6c0-0.1-0.1-0.3-0.1-0.4c-0.2-0.8-0.4-1.7-0.7-2.5c-0.1-0.2-0.3-0.6-0.4-0.9c-0.1,0.1-0.2,0.1-0.3,0.2
					c-0.4,0.4-0.7,0.8-1,1.3c-1.3,1.8-2.3,3.8-3.9,5.3c-3.2,2.9-4.3,6.4-3.6,10.5c0.2,1.1,0.3,2.4-0.7,3c-1.1,0.6-2.1,0.1-3-0.7
					c-0.1-0.1-0.3-0.2-0.5-0.3c-1.4-1.2-2.4-0.8-3.2,0.7c-0.3,0.5-0.6,1.1-0.8,1.6c-0.4,1.2-1.1,1.9-2.1,2.6
					c-2.6,1.9-4.3,2.9-2.6,7.3c1.4,3.4,2.5,7,3.7,10.5c0.2,0.5,0.5,1.3-0.1,1.7c-0.5,0.3-0.9-0.3-1.3-0.7c-2.5-2.5-4.3-5.5-6.3-8.4
					c-1-1.4-2-1.5-3-0.3c-2,2.7-4.5,5-6.2,7.9c-1.5,2.5-2.2,5-0.8,7.8c1.7,3.6,3.3,7.2,4.9,10.9c0.1,0.3,1,1.1-0.1,1.5
					c-0.6,0.2-1.3,0.6-2-0.1c-3.6-3.4-5.8-7.4-6.3-12.4c-0.1-0.5,0.1-1.4-0.7-1.5c-0.6-0.1-1,0.6-1.4,1.1c-2.9,3.5-5.5,7.2-8,10.9
					c-3.1,4.6-4.2,9.5-1.4,14.8c2.8,5.2,5.6,10.5,7.9,16c0.4,0.9,0.9,1.9,0.7,3c-1.6-0.4-2.1-1.9-3-3.1c-4.4-6-6.1-13.5-10.7-19.5
					c-1-1.3-1.4-1.5-2.3-0.1c-1.2,1.9-2.5,3.8-3.5,5.8c-1.2,2.3-2.7,4.6-2.6,7.4c0.1,1.5,0.7,3-0.7,4.4c-0.4,0.4-0.2,1.4,0,2.1
					c0.4,1.1,0.7,2.2,1.1,3.3c2.9,6.8,6.7,13.2,9.9,19.9c2,4.3,4.4,8.4,5.8,12.9c0.1,0.4,0.5,1,0,1.3c-0.5,0.3-1-0.1-1.3-0.4
					c0,0,0,0,0,0c-0.1-0.2-0.2-0.4-0.4-0.6c-4-5.3-8.6-10.8-11.1-17c-0.2-0.5-0.4-0.8-0.7-1.2c-2.3-4.6-4.3-9.3-6.2-14
					c-0.1-0.3-0.1-0.9-0.7-0.9c-0.6,0-0.8,0.5-1,0.9c-1.4,2.9-2.8,5.8-3.7,8.8c-1,3.6-1.6,7.3,0,10.9c0.9,2.2,1.7,4.4,2.4,6.6
					c1.3,4.5,2.8,9.1,3.3,13.8c0,0.5,0.3,1.1-0.3,1.3c-0.5,0.2-0.7-0.5-0.9-0.9c-2.7-4.6-4.5-9.5-6-14.6c-0.7-2.5-0.9-5-1.3-7.5
					c-0.1-0.5,0.1-1.1-0.4-1.3c-0.6-0.2-0.8,0.6-1.2,0.8c-0.4,0.3-0.7,0.7-1,1c-5.9,7.1-7.6,15.3-6.4,24.2
					c0.7,5.7,3.2,10.8,5.2,16.1c1,2.6,2.1,5.1,2.7,7.9c0.1,0.5,0.3,1-0.3,1.3c-0.5,0.2-0.7-0.4-1-0.5c-1-0.4-1.2-1.5-1.7-2.2
					c-4.8-6.9-7.8-14.6-9.9-22.7c-0.1-0.3,0.2-0.7-0.3-0.7c-0.4-0.1-0.7,0.1-0.9,0.5c-1.6,3.2-3.3,6.5-2.6,10.3
					c0.8,4,1.5,8,2.3,11.9c0.1,0.2,0.1,0.4-0.1,0.5c0,0-0.1-0.2-0.2-0.4c-2.2-2.7-2.5-6.1-3.7-9.5c-1.9,3.6-2.4,7.1-1.5,10.6
					c1.6,6.3,3.7,12.6,5,19c0.1,0.5,0.4,1-0.2,1.2c-0.4,0.1-0.7-0.3-0.9-0.8c-0.6-1.3-1.2-2.5-1.9-3.7c-1.3-2.5-2.7-4.9-4.2-7.6
					c-2.6,4.5-4.1,8.9-5.2,13.5c-0.9,3.6-0.5,7.2,1.2,10.6c0.8,1.7,1.7,3.3,2.4,5.1c0.3,0.7,1.2,1.6,0.4,2.1c-0.6,0.5-1.5-0.3-2-0.9
					c-0.9-1.1-1.2-0.5-1.5,0.4c-0.8,2.4-1.5,4.8-2.5,7.1c-0.5,1.2-0.3,2.2,0.4,3.2c1.8,2.6,4,4.8,5.9,7.3c3,3.8,5.9,7.7,7.9,12.2
					c0.5,1.2,0.5,2.2-0.1,3.5c-2.6,5.7-5.1,11.6-7.6,17.3c-0.3,0.6-0.6,1.2-0.2,1.6C247.3,205.4,285.1,151.8,309.7,93.1z"/>
				<path class="st2" d="M227.9,170.3c0.1,0.2,0.1,0.4-0.1,0.5c0,0-0.1-0.2-0.2-0.4C227.7,170.4,227.8,170.4,227.9,170.3z"/>
			</g>
		</g>
		<path class="st3" d="M230.1,243.1c8-20.1,21.3-38,32.8-56.1c3.5-5.5,7.1-11.1,10.5-16.7c0.1,0,0.3-0.1,0.6-0.4
			c7.3-7.4,16.8-8.8,25.9-12.8c0.1-0.1,0.9-0.9,0.5-0.9c-5,0-10.2,2.3-14.8,4.3c-3.6,1.5-7.2,3.6-10,6.3
			c7.4-12.1,14.4-24.4,20.5-37.1c8.9-18.5,16-37.5,21.1-57.4c2.1-8.1,3.9-16.3,5.1-24.7c1.1-7.7,1.8-16.4-1-23.9
			c-0.2-0.4-1.3,0.8-1.2,1.2c2.7,16.8-1.5,34-5.7,50.2c-0.7-3.2-2.8-6.5-4.6-8.7c-0.2-0.2-1.1,0.8-1,1c1.6,4.4,4,8,4.3,12.7
			c-5.4,19.4-12.9,38.3-22.3,56.1c-0.8,1.5-1.7,3.1-2.5,4.6c-0.8-9.6-7.5-20.1-13.9-26.2c-0.3-0.3-1.3,0.9-1.1,1.3
			c2.5,4.7,5.9,8.9,8.5,13.5c2.7,4.7,3.8,9.4,4.9,14.5c-9.3,16.9-19.5,33.3-30,49.4c-2.8,4.2-5.5,8.4-8.2,12.7
			c0.4-3.8-0.4-7.8-1.6-11.4c-1.4-4.6-3.3-9.8-6.3-13.7c-0.3-0.4-1.5,1.1-1.4,1.5c0.9,4.6,3.3,8.9,5,13.3c1.7,4.7,2.3,9,2,13.9
			c-2.1,3.4-4.2,6.7-6.3,10.2c-4.7,7.9-9.9,16.3-12.8,25.1C226.2,247.1,229.7,244.2,230.1,243.1z"/>
	</g>
	<g>
		<defs>
			
				<rect id="SVGID_23_" x="77.5" y="37.6" transform="matrix(0.2588 -0.9659 0.9659 0.2588 -8.7436 221.5837)" width="125" height="157.9"/>
		</defs>
		<clipPath id="SVGID_1_">
			<use xlink:href="#SVGID_23_"  style="overflow:visible;"/>
		</clipPath>
		<g class="st4">
			<path class="st5" d="M219.2,96.3l-8.9-3.1l6.1-17.6c0.6-1.8,2.6-2.8,4.5-2.1l2.3,0.8c1.8,0.6,2.8,2.6,2.1,4.5L219.2,96.3z"/>
			<path class="st6" d="M219.2,96.3l-4.5-1.5l7.3-21l1.2,0.4c1.8,0.6,2.8,2.6,2.1,4.5L219.2,96.3z"/>
			<path class="st7" d="M224.4,106.5c-2.4,8.5-6.1,16.9-11.1,24.8c-28.2,44.6-87,57.9-131.4,29.7c-7.9-5-14.8-11-20.7-17.6
				c-0.4-0.5-4.1-5.4-5.3-11c-0.7-2.8-0.7-5.7,0.5-8.3l0-0.1c0.2-0.3,0.3-0.6,0.5-0.8c0.2-0.2,0.4-0.5,0.7-0.7
				c1.8-1.6,5.1-1.8,8.9-1.2c8.3,1.2,19.2,6.2,24,7.8l0.1,0c1.2,0.4,2.3,0.8,3.5,1.2c0.1,0,0.1,0,0.2,0.1c1.3,0.4,2.5,0.8,3.9,1.2
				c0.4,0.1,0.8,0.2,1.2,0.3c0.3,0.1,0.7,0.2,1.1,0.3c0.3,0.1,0.7,0.2,1,0.3c0.5,0.1,0.9,0.2,1.4,0.4c0.9,0.2,1.8,0.4,2.7,0.6
				c0.5,0.1,1,0.2,1.6,0.3c1.4,0.2,2.8,0.5,4.2,0.6c0.5,0.1,0.9,0.1,1.3,0.1c0.5,0.1,0.9,0.1,1.3,0.1c1.3,0.1,2.7,0.2,4,0.3
				c0.1,0,0.2,0.1,0.3,0l0.3,0c2,0.1,3.9,0.1,5.8,0.1c1.8,0,3.7-0.1,5.5-0.2c0.2,0,0.5,0,0.7,0l0.3,0c1.2-0.1,2.4-0.2,3.6-0.4
				c0.1,0,0.2,0,0.4,0c0.1,0,0.3-0.1,0.4-0.1c3.4-0.4,6.9-1,10.3-1.8c0.7-0.1,1.3-0.3,2-0.5c0.6-0.2,1.2-0.3,1.8-0.5
				c0.1,0,0.2-0.1,0.3-0.1c0.3-0.1,0.7-0.2,1-0.3c1-0.3,2-0.6,3-1c0.5-0.1,1-0.4,1.5-0.5c0.8-0.3,1.6-0.6,2.3-0.9
				c0.3-0.1,0.6-0.3,0.9-0.3c1-0.4,2.1-0.9,3.1-1.3c4.6-2,9-4.3,13.2-7c0.1,0,0.2-0.1,0.2-0.1c1.6-1.1,3.2-2.1,4.8-3.3
				c0.7-0.5,1.4-1,2.1-1.6c0.5-0.4,1.2-0.9,1.7-1.3c0.1-0.1,0.2-0.2,0.3-0.3c1.2-1,2.4-2,3.6-3.1c6.3-5.7,12-12.3,16.8-19.9
				c0.5-0.8,1-1.6,1.5-2.4c0,0,0.2-0.2,0.5-0.6c0.1-0.1,0.2-0.2,0.3-0.3c0.1,0,0.1-0.1,0.2-0.2c0.1,0,0.1-0.1,0.2-0.2
				c1.3-1.1,3.5-2.7,6.5-3.1c2.1-0.3,4.7,0.1,7.6,1.7c2.8,1.6,4.1,4.3,4.6,7.3C226.4,97.6,225.2,103.2,224.4,106.5z"/>
			<path class="st8" d="M220.8,85.5c0,0.1,0,0.1,0,0.1c-2.1,8.2-5.4,16.3-9.9,24c-0.6,1.1-1.2,2-1.8,3.1
				c-28.2,44.5-86.9,57.8-131.4,29.7c-6.6-4.2-12.5-9-17.7-14.4c-0.8-0.8-1.5-1.6-2.2-2.4c-0.5-0.5-0.9-1-1.4-1.6
				c0.2-0.3,0.3-0.6,0.5-0.8c0.2-0.2,0.4-0.5,0.7-0.7c1.8-1.6,5.1-1.8,8.9-1.2c8.3,1.2,19.2,6.2,24,7.8l0.1,0
				c1.2,0.4,2.3,0.8,3.5,1.2c0.1,0,0.1,0,0.2,0.1c1.3,0.4,2.5,0.8,3.9,1.2c0.1,0,0.3,0.1,0.3,0.1c0.3,0.1,0.5,0.1,0.8,0.2
				c0.3,0.1,0.7,0.2,1.1,0.3c0.3,0.1,0.7,0.2,1,0.3c0.5,0.1,0.9,0.2,1.4,0.4c0.9,0.2,1.8,0.4,2.7,0.6c0.5,0.1,1,0.2,1.6,0.3
				c0.9,0.2,1.7,0.3,2.6,0.4c0.5,0.1,1,0.1,1.6,0.2c0.5,0.1,0.9,0.1,1.3,0.1c0.5,0.1,0.9,0.1,1.3,0.1c1.3,0.1,2.7,0.2,4,0.3
				c0.1,0,0.2,0.1,0.3,0l0.3,0c0.3,0,0.7,0,1,0.1c1.6,0.1,3.2,0.1,4.8,0.1c1.6,0,3.2-0.1,4.8-0.1c0.2,0,0.5,0,0.7,0s0.5,0,0.7,0
				l0.3,0c0.7-0.1,1.5-0.2,2.3-0.2c0.4,0,0.9-0.1,1.4-0.1c0.1,0,0.2,0,0.4,0c0.1,0,0.3-0.1,0.4-0.1c0.7-0.1,1.3-0.1,2-0.2
				c0.5-0.1,1-0.2,1.5-0.2c0.2,0,0.4-0.1,0.7-0.1c0.7-0.1,1.3-0.3,2.1-0.4c0.6-0.1,1.3-0.2,1.9-0.4c0.7-0.2,1.5-0.3,2.3-0.5
				c0.7-0.2,1.3-0.3,2-0.5c0.6-0.2,1.2-0.3,1.8-0.5c0.1,0,0.2-0.1,0.3-0.1c0.3-0.1,0.7-0.2,1-0.3c1-0.3,2-0.6,3-1
				c0.5-0.1,1-0.4,1.5-0.5c0.8-0.3,1.6-0.6,2.3-0.9c0.3-0.1,0.6-0.3,0.9-0.3c0.3-0.1,0.6-0.3,0.9-0.3c0.7-0.3,1.5-0.6,2.2-0.9
				c0.6-0.3,1.2-0.5,1.9-0.8c0.7-0.3,1.4-0.6,2.1-1c0.3-0.2,0.7-0.4,1.1-0.6c0.3-0.1,0.6-0.3,0.8-0.4c0.7-0.3,1.2-0.7,1.9-1
				s1.3-0.7,1.9-1c0.5-0.3,1-0.6,1.5-0.9c0.7-0.5,1.4-0.8,2.1-1.3c0.1,0,0.2-0.1,0.3-0.1c0.7-0.4,1.3-0.9,2-1.3
				c0.4-0.3,0.9-0.5,1.2-0.9c0.5-0.4,1-0.7,1.6-1.1c0.5-0.4,0.9-0.7,1.3-1c0.3-0.2,0.5-0.4,0.8-0.6c0.5-0.4,1.2-0.9,1.7-1.3
				c0.1-0.1,0.2-0.2,0.3-0.3c0.5-0.4,0.9-0.7,1.4-1.1c0.4-0.3,0.7-0.7,1.1-1c0.4-0.3,0.7-0.7,1.1-1c0.6-0.5,1-0.9,1.5-1.4
				c0.3-0.3,0.6-0.5,0.8-0.8c0.7-0.6,1.3-1.3,1.9-2c0.4-0.5,0.9-0.9,1.3-1.3c0.6-0.7,1.2-1.3,1.8-2c0.4-0.5,0.8-0.9,1.2-1.4
				c0.6-0.7,1.1-1.4,1.8-2.1c0.4-0.5,0.7-0.9,1.1-1.4c0.6-0.8,1.2-1.7,1.9-2.5c0.2-0.3,0.5-0.7,0.7-0.9c0.1-0.1,0.2-0.2,0.3-0.4
				c0.8-1.2,1.6-2.5,2.5-3.7c0.5-0.8,1-1.6,1.5-2.4c0,0,0.2-0.2,0.5-0.6c0.1-0.1,0.2-0.2,0.3-0.3c0.1,0,0.1-0.1,0.2-0.2
				c0.1,0,0.1-0.1,0.2-0.2c1.3-1.1,3.5-2.7,6.5-3.1C215.4,83.5,218,83.9,220.8,85.5z"/>
			<path class="st6" d="M66.4,121.4c-5.4,2-9.2,5.5-10.6,11.1c-0.7-2.8-0.7-5.7,0.5-8.3l0-0.1c0.2-0.3,0.3-0.6,0.5-0.8
				c0.2-0.2,0.4-0.5,0.7-0.7C59.4,121,62.7,120.8,66.4,121.4z"/>
			<path class="st5" d="M66.4,121.4c-3.2,1.2-5.9,2.9-7.8,5.3c-0.3-0.3-0.6-0.7-0.9-1c-0.5-0.5-0.9-1-1.3-1.6
				c0.2-0.3,0.3-0.6,0.5-0.9c0.2-0.2,0.4-0.5,0.7-0.7C59.4,121,62.7,120.8,66.4,121.4z"/>
		</g>
	</g>
	<g>
		<defs>
			<rect id="SVGID_21_" x="73.2" y="109.2" width="294" height="284"/>
		</defs>
		<clipPath id="SVGID_2_">
			<use xlink:href="#SVGID_21_"  style="overflow:visible;"/>
		</clipPath>
		<g class="st9">
			<path class="st5" d="M331,147.8l-28.2-2.1l2.3-31.3c0.2-3.2,5-5.5,10.9-5.1l7.3,0.6c5.7,0.5,10.2,3.5,10,6.7L331,147.8z"/>
			<path class="st6" d="M331,147.8l-14.1-1l2.8-37.3l3.7,0.2c5.7,0.5,10.2,3.5,10,6.7L331,147.8z"/>
			<path class="st7" d="M338.4,163.1c-0.2,15-2.5,30.2-7.2,45.3c-26.4,84.8-116,132.1-200.3,105.7c-15-4.7-28.9-11.4-41.2-19.7
				c-0.9-0.7-8.9-7-13.4-15.5c-2.3-4.3-3.6-9-2.7-13.7v-0.1c0.1-0.6,0.2-1,0.5-1.5c0.2-0.5,0.5-0.9,0.8-1.4
				c2.3-3.5,7.4-5.2,13.9-5.9c14-1.6,33.8,1.7,42.3,2.2h0.1c2.1,0.2,4.1,0.3,6.2,0.5c0.1,0,0.2,0,0.3,0c2.3,0.1,4.5,0.2,6.8,0.2
				c0.7,0,1.4,0,2.1,0c0.6,0,1.1,0,1.8,0c0.6,0,1.1,0,1.7,0c0.8,0,1.6,0,2.4,0c1.5,0,3.1-0.1,4.6-0.2c0.9,0,1.7-0.1,2.6-0.2
				c2.4-0.2,4.8-0.5,7.1-0.8c0.8-0.1,1.5-0.2,2.2-0.3c0.8-0.1,1.5-0.2,2.2-0.3c2.2-0.3,4.5-0.8,6.6-1.3c0.1,0,0.3,0,0.5-0.1l0.5-0.3
				c3.2-0.7,6.4-1.5,9.5-2.3c3-0.8,6-1.7,8.8-2.8c0.3-0.1,0.8-0.2,1.1-0.3l0.5-0.1c1.9-0.7,3.8-1.4,5.7-2.2c0.2-0.1,0.3-0.1,0.6-0.2
				c0.2-0.1,0.5-0.2,0.7-0.3c5.4-2.2,10.8-4.7,15.9-7.5c1-0.5,1.9-1,3-1.6c0.9-0.6,1.8-1,2.8-1.6c0.1-0.1,0.3-0.2,0.5-0.2
				c0.5-0.3,1-0.6,1.5-0.9c1.5-0.9,3-1.8,4.5-2.9c0.8-0.5,1.5-1,2.3-1.5c1.1-0.8,2.3-1.6,3.4-2.4c0.5-0.3,0.8-0.7,1.3-0.9
				c1.5-1,3-2.3,4.5-3.5c6.5-5.2,12.7-10.9,18.4-17.2c0.1-0.1,0.2-0.2,0.3-0.3c2.2-2.4,4.2-4.8,6.3-7.4c0.9-1.2,1.8-2.3,2.8-3.6
				c0.7-0.9,1.5-2,2.2-2.9c0.1-0.2,0.2-0.3,0.3-0.6c1.5-2.2,3-4.3,4.5-6.6c7.8-12,14.1-25.3,18.6-39.7c0.5-1.5,0.9-3.1,1.4-4.6
				c0,0,0.2-0.5,0.6-1.2c0.1-0.2,0.2-0.5,0.3-0.7c0.1-0.1,0.1-0.2,0.2-0.3c0.1-0.1,0.1-0.2,0.2-0.3c1.6-2.4,4.5-6,9.2-7.8
				c3.3-1.4,7.7-1.8,13.1-0.5c5.2,1.4,8.5,5.2,10.7,9.9C337.7,147.7,338.3,157.3,338.4,163.1z"/>
			<path class="st8" d="M323.5,130.4c0,0.1,0,0.2,0,0.2c0.1,14.3-1.7,28.9-5.6,43.4c-0.5,2-1,3.8-1.6,5.8
				C290,264.6,200.4,311.9,116,285.6c-12.5-3.9-24.2-9.2-34.9-15.8c-1.6-0.9-3.2-2-4.7-3c-1-0.6-1.9-1.3-3-2c0.1-0.6,0.2-1,0.5-1.5
				c0.2-0.5,0.5-0.9,0.8-1.4c2.3-3.5,7.4-5.2,13.9-5.9c14-1.6,33.8,1.7,42.3,2.2h0.1c2.1,0.2,4.1,0.3,6.2,0.5c0.1,0,0.2,0,0.3,0
				c2.3,0.1,4.5,0.2,6.8,0.2c0.2,0,0.5,0,0.6,0c0.5,0,0.9,0,1.4,0c0.6,0,1.1,0,1.8,0c0.6,0,1.1,0,1.7,0c0.8,0,1.6,0,2.4,0
				c1.6-0.1,3.1-0.1,4.6-0.2c0.9,0,1.7-0.1,2.6-0.2c1.5-0.1,3-0.2,4.5-0.5c0.9-0.1,1.7-0.2,2.6-0.3c0.8-0.1,1.5-0.2,2.2-0.3
				c0.8-0.1,1.5-0.2,2.2-0.3c2.2-0.3,4.5-0.8,6.6-1.3c0.1,0,0.3,0,0.5-0.1l0.7-0.1c0.6-0.1,1.1-0.2,1.7-0.3c2.6-0.6,5.3-1.3,7.8-2
				c2.6-0.7,5.2-1.5,7.7-2.3c0.3-0.1,0.8-0.2,1.1-0.3c0.3-0.1,0.8-0.2,1.1-0.3l0.5-0.1c1.1-0.5,2.4-0.9,3.6-1.4
				c0.7-0.2,1.5-0.6,2.2-0.8c0.2-0.1,0.3-0.1,0.6-0.2c0.2-0.1,0.5-0.2,0.7-0.3c1-0.5,2.1-0.8,3.1-1.3c0.8-0.3,1.5-0.7,2.3-1
				c0.3-0.1,0.7-0.3,1-0.5c1-0.5,2.1-1,3.2-1.5c0.9-0.5,1.9-0.9,2.9-1.5c1.1-0.6,2.3-1.2,3.4-1.8c1-0.6,1.9-1,3-1.6
				c0.9-0.6,1.8-1,2.8-1.6c0.1-0.1,0.3-0.2,0.5-0.2c0.5-0.3,1-0.6,1.5-0.9c1.5-0.9,3-1.8,4.5-2.9c0.8-0.5,1.5-1,2.3-1.5
				c1.1-0.8,2.3-1.6,3.4-2.4c0.5-0.3,0.8-0.7,1.3-0.9c0.5-0.3,0.8-0.7,1.3-0.9c1-0.8,2.2-1.6,3.2-2.4c0.9-0.7,1.7-1.4,2.6-2.2
				c1-0.8,2.1-1.6,3-2.5c0.5-0.5,1-0.9,1.5-1.4c0.3-0.3,0.8-0.7,1.1-1c0.9-0.8,1.7-1.6,2.6-2.4c0.9-0.8,1.7-1.7,2.6-2.5
				c0.7-0.7,1.4-1.4,2.1-2.1c0.9-1,1.9-2,2.9-3c0.1-0.1,0.2-0.2,0.3-0.3c0.9-0.9,1.7-2,2.6-3c0.6-0.7,1.1-1.3,1.6-2
				c0.7-0.8,1.4-1.6,2.1-2.5c0.6-0.8,1.1-1.5,1.7-2.2c0.3-0.5,0.7-0.9,1-1.4c0.7-0.9,1.5-2,2.2-2.9c0.1-0.2,0.2-0.3,0.3-0.6
				c0.6-0.8,1.1-1.6,1.7-2.4c0.5-0.7,0.9-1.4,1.4-2.1c0.5-0.7,0.9-1.4,1.4-2.1c0.7-1,1.3-2,1.8-3c0.3-0.6,0.7-1,0.9-1.6
				c0.8-1.3,1.6-2.6,2.3-4c0.5-0.9,1-1.8,1.5-2.6c0.7-1.4,1.4-2.6,2.1-4c0.5-0.9,0.9-1.8,1.4-2.8c0.7-1.4,1.3-2.8,1.9-4.3
				c0.5-0.9,0.8-1.8,1.1-2.8c0.7-1.6,1.3-3.2,1.9-4.8c0.2-0.6,0.5-1.3,0.7-1.8c0.1-0.2,0.2-0.5,0.2-0.8c0.8-2.3,1.6-4.7,2.4-7.1
				c0.5-1.5,0.9-3.1,1.4-4.6c0,0,0.2-0.5,0.6-1.2c0.1-0.2,0.2-0.5,0.3-0.7c0.1-0.1,0.1-0.2,0.2-0.3c0.1-0.1,0.1-0.2,0.2-0.3
				c1.6-2.4,4.5-6,9.2-7.8C313.8,129.5,318.1,129,323.5,130.4z"/>
			<path class="st6" d="M88.5,256.1c-7.9,5.5-12.5,12.9-12.4,22.7c-2.3-4.3-3.6-9-2.7-13.7v-0.1c0.1-0.6,0.2-1,0.5-1.5
				c0.2-0.5,0.5-0.9,0.8-1.4C77,258.5,82.1,256.8,88.5,256.1z"/>
			<path class="st7" d="M344.7,150.2c7.7,12.9,13.6,27.1,17.4,42.4c21.9,86-29.7,173.6-115.3,195.7c-15.2,3.9-30.5,5.5-45.4,5
				c-1.1-0.1-11.2-1.3-19.6-6.2c-4.1-2.4-7.7-5.8-9.5-10.2c0,0,0,0,0-0.1c-0.2-0.5-0.3-1-0.5-1.5c-0.1-0.6-0.1-1-0.1-1.6
				c0.1-4.1,3.7-8.4,8.7-12.3c11.1-8.8,29.7-16.4,37.1-20.5c1.8-0.9,3.7-1.8,5.5-2.9c0.1,0,0.2-0.1,0.3-0.1c1.9-1,3.9-2.2,5.8-3.3
				c0.6-0.3,1.1-0.7,1.7-1c0.5-0.3,1-0.7,1.5-0.9c0.5-0.3,1-0.6,1.5-0.9c0.7-0.5,1.4-0.8,1.9-1.3c1.3-0.8,2.5-1.7,3.8-2.6
				c0.7-0.5,1.5-1,2.2-1.6c1.9-1.4,3.9-2.9,5.7-4.4c0.6-0.5,1.1-0.9,1.7-1.4c0.6-0.5,1.1-1,1.7-1.5c1.7-1.5,3.3-3,5-4.5
				c0.1-0.1,0.2-0.2,0.3-0.3l0.5-0.5c2.4-2.3,4.7-4.6,6.9-7c2.1-2.3,4.1-4.6,6.1-7c0.2-0.3,0.5-0.6,0.8-0.9l0.3-0.3
				c1.3-1.6,2.5-3.2,3.8-4.8c0.1-0.1,0.2-0.3,0.3-0.5c0.1-0.2,0.3-0.5,0.5-0.6c3.4-4.7,6.6-9.7,9.6-14.7c0.6-0.9,1.1-2,1.6-3
				c0.6-0.9,1-1.8,1.5-2.9c0.1-0.1,0.1-0.3,0.2-0.5c0.2-0.6,0.6-1,0.8-1.6c0.8-1.6,1.6-3.2,2.4-4.8c0.3-0.8,0.8-1.6,1.1-2.4
				c0.6-1.3,1.1-2.5,1.6-3.8c0.2-0.5,0.3-1,0.6-1.5c0.7-1.7,1.4-3.5,2.1-5.3c2.9-7.8,5.2-16,6.8-24.4c0-0.1,0.1-0.3,0.1-0.5
				c0.6-3.1,1.1-6.3,1.5-9.6c0.2-1.5,0.3-3,0.6-4.5c0.1-1.2,0.2-2.4,0.3-3.7c0-0.2,0-0.5,0-0.7c0.2-2.6,0.3-5.3,0.3-7.9
				c0.3-14.4-1.3-29-4.9-43.5c-0.3-1.5-0.8-3.1-1.3-4.6c0,0-0.1-0.5-0.1-1.3c0-0.2,0-0.5,0-0.8c0-0.1,0-0.2,0-0.5c0-0.1,0-0.3,0-0.5
				c0-2.9,0.7-7.5,3.8-11.5c2.2-2.9,5.6-5.6,10.9-7.3c5-1.5,10-0.1,14.2,2.8C336.1,137.4,341.6,145.3,344.7,150.2z"/>
			<path class="st8" d="M315.1,130.3c0,0.1,0.1,0.1,0.1,0.2c7.6,12.1,13.6,25.5,17.9,39.8c0.6,1.8,1.1,3.8,1.6,5.8
				c21.9,86-29.7,173.6-115.3,195.7c-12.7,3.2-25.4,4.8-37.9,5.1c-1.8,0-3.7,0-5.5,0c-1.1,0-2.4-0.1-3.6-0.1c-0.2-0.5-0.3-1-0.5-1.5
				c-0.1-0.6-0.1-1-0.1-1.6c0.1-4.1,3.7-8.4,8.7-12.3c11.1-8.8,29.7-16.4,37.1-20.5c1.8-0.9,3.7-1.8,5.5-2.9c0.1,0,0.2-0.1,0.3-0.1
				c1.9-1,3.9-2.2,5.8-3.3c0.2-0.1,0.3-0.2,0.6-0.3c0.3-0.2,0.8-0.5,1.1-0.7c0.5-0.3,1-0.7,1.5-0.9c0.5-0.2,1-0.7,1.5-0.9
				c0.7-0.5,1.4-0.8,1.9-1.3c1.3-0.9,2.5-1.7,3.8-2.6c0.7-0.5,1.5-1,2.2-1.6c1.3-0.9,2.4-1.8,3.6-2.8c0.7-0.6,1.4-1.2,2.1-1.7
				c0.6-0.5,1.1-0.9,1.7-1.4c0.6-0.5,1.1-1,1.7-1.5c1.7-1.5,3.3-3,5-4.5c0.1-0.1,0.2-0.2,0.3-0.3l0.5-0.5c0.5-0.5,0.8-0.8,1.3-1.3
				c1.9-1.8,3.8-3.8,5.6-5.8c1.8-2,3.6-4,5.3-6.1c0.2-0.3,0.6-0.6,0.8-0.9c0.2-0.3,0.5-0.6,0.8-0.9l0.3-0.3c0.8-1,1.6-2,2.3-3
				c0.5-0.6,0.9-1.3,1.5-1.8c0.1-0.1,0.2-0.3,0.3-0.5c0.1-0.2,0.3-0.5,0.5-0.6c0.7-0.9,1.3-1.8,1.9-2.8c0.5-0.7,0.9-1.4,1.4-2.1
				c0.2-0.3,0.5-0.6,0.6-0.9c0.7-1,1.3-2,1.9-3c0.6-0.9,1.1-1.8,1.7-2.8c0.7-1.2,1.4-2.2,2.1-3.3c0.6-0.9,1.1-2,1.6-3
				c0.5-0.9,1-1.8,1.5-2.9c0.1-0.1,0.1-0.3,0.2-0.5c0.2-0.6,0.6-1,0.8-1.6c0.8-1.6,1.6-3.2,2.4-4.8c0.3-0.8,0.8-1.6,1.1-2.4
				c0.6-1.3,1.1-2.5,1.6-3.8c0.2-0.5,0.3-1,0.6-1.5c0.2-0.5,0.3-1,0.6-1.5c0.5-1.3,1-2.5,1.5-3.8c0.3-1,0.7-2.1,1-3.2
				c0.5-1.3,0.8-2.4,1.3-3.7c0.2-0.7,0.3-1.3,0.6-2c0.1-0.5,0.3-1,0.5-1.5c0.3-1.2,0.7-2.3,0.9-3.5c0.3-1.2,0.6-2.4,0.9-3.6
				c0.2-0.9,0.5-2,0.7-2.9c0.3-1.4,0.6-2.8,0.9-4.1c0-0.1,0.1-0.3,0.1-0.5c0.2-1.3,0.5-2.6,0.7-3.9c0.1-0.8,0.2-1.6,0.3-2.5
				c0.1-1,0.3-2.1,0.5-3.2c0.1-0.9,0.2-1.8,0.3-2.9c0.1-0.6,0.1-1.2,0.2-1.7c0.1-1.2,0.2-2.4,0.3-3.7c0-0.2,0-0.5,0-0.7
				c0.1-1,0.1-2,0.1-3c0.1-0.8,0.1-1.6,0.1-2.4s0.1-1.6,0.1-2.5c0-1.2,0-2.4,0-3.6c0-0.6,0-1.3,0-1.8c0-1.5,0-3.1-0.1-4.6
				c0-1-0.1-2.1-0.1-3.1c-0.1-1.5-0.2-3-0.3-4.6c-0.1-1-0.2-2.1-0.3-3.1c-0.2-1.5-0.3-3.1-0.6-4.6c-0.1-1-0.2-2-0.5-3
				c-0.2-1.7-0.6-3.5-0.9-5.1c-0.1-0.7-0.2-1.3-0.3-2c0-0.2-0.1-0.6-0.1-0.8c-0.5-2.4-1-5-1.7-7.4c-0.3-1.5-0.8-3.1-1.3-4.6
				c0,0-0.1-0.5-0.1-1.3c0-0.2,0-0.5,0-0.8c0-0.1,0-0.2,0-0.5c0-0.1,0-0.3,0-0.5c0-2.9,0.7-7.5,3.8-11.5
				C306.3,134.6,309.7,131.9,315.1,130.3z"/>
			<path class="st6" d="M180.5,361.1c-3.9,8.9-3.9,17.5,1.4,25.8c-4.1-2.4-7.8-5.8-9.5-10.2c0,0,0,0,0-0.1c-0.2-0.5-0.3-1-0.5-1.5
				c-0.1-0.6-0.1-1-0.1-1.6C171.9,369.3,175.5,365.1,180.5,361.1z"/>
		</g>
	</g>
	<g>
		<g>
			<g>
				<g>
					<path class="st10" d="M76.7,180.1c-2.3,8.4-3.5,16.9-3.5,25.4c0,0.6,0,1.2,0,1.8c0.1,10.4-1.2,20.7-3.5,30.9
						c-4.8-1.7-9.7-5.1-14.4-11.1c-12.4-15.7-8.3-40.8,7-46.8C68.1,178.1,72.9,178.6,76.7,180.1C76.7,180.1,76.7,180.1,76.7,180.1z"
						/>
					<path class="st11" d="M76.7,180.1c-2.3,8.4-3.5,16.9-3.5,25.4c0,0.6,0,1.2,0,1.8c0.1,10.4-1.2,20.7-3.5,30.9
						c-4.8-1.7-9.7-5.1-14.4-11.1c-12.4-15.7-8.3-40.8,7-46.8C68.1,178.1,72.9,178.6,76.7,180.1C76.7,180.1,76.7,180.1,76.7,180.1z"
						/>
				</g>
				<g>
					<path class="st10" d="M304.9,227.1c-4.7,5.9-9.6,9.4-14.4,11.1c-2.3-10.1-3.6-20.5-3.5-30.9c0-0.6,0-1.2,0-1.8
						c0-8.5-1.2-17.1-3.5-25.5c3.8-1.5,8.6-1.9,14.4,0.3C313.1,186.3,317.3,211.4,304.9,227.1z"/>
					<path class="st11" d="M304.9,227.1c-4.7,5.9-9.6,9.4-14.4,11.1c-2.3-10.1-3.6-20.5-3.5-30.9c0-0.6,0-1.2,0-1.8
						c0-8.5-1.2-17.1-3.5-25.5c3.8-1.5,8.6-1.9,14.4,0.3C313.1,186.3,317.3,211.4,304.9,227.1z"/>
				</g>
				<path class="st10" d="M257.3,238.5c-4.5,7-5.7,15.8-3,23.7c2,6,3.9,12.8,3.9,17.8c0,36.9-34.9,66.7-78,66.7s-78-29.9-78-66.7
					c0-5,1.8-11.8,3.9-17.8c2.7-7.9,1.5-16.7-3-23.7c-1.1-1.7-2-3.5-2.9-5.3c-2.5-5.4-3.9-11.4-3.9-17.7c0-24.5,20.8-44.3,46.5-44.3
					c8.7,0,16.8,2.3,23.7,6.2c8.5,4.8,18.8,4.8,27.4,0c6.9-3.9,15-6.2,23.7-6.2c25.7,0,46.6,19.8,46.6,44.3c0,6.3-1.4,12.3-3.9,17.7
					C259.3,235.1,258.4,236.8,257.3,238.5z"/>
				<path class="st11" d="M258.3,238.5c-4.5,7-5.7,15.8-3,23.7c2,6,3.9,12.8,3.9,17.8c0,36.9-34.9,66.7-78,66.7s-78-29.9-78-66.7
					c0-5,1.8-11.8,3.9-17.8c2.7-7.9,1.5-16.7-3-23.7c-1.1-1.7-2-3.5-2.9-5.3c-2.5-5.4-3.9-11.4-3.9-17.7c0-24.5,20.8-44.3,46.5-44.3
					c8.7,0,16.8,2.3,23.7,6.2c8.5,4.8,18.8,4.8,27.4,0c6.9-3.9,15-6.2,23.7-6.2c25.7,0,46.6,19.8,46.6,44.3c0,6.3-1.4,12.3-3.9,17.7
					C260.3,235.1,259.3,236.8,258.3,238.5z"/>
				<path class="st12" d="M140.4,288.3c-2.7,0-4.8,2.4-4.4,5.1c2.8,19.7,21.5,35,44.2,35c22.7,0,41.4-15.3,44.2-35
					c0.4-2.7-1.8-5.1-4.4-5.1H140.4z"/>
				<path class="st13" d="M154.4,321c7.3,4.6,16.1,7.4,25.7,7.4s18.4-2.7,25.7-7.4c-3.2-11.1-13.5-8.6-25.7-8.6
					S157.7,309.9,154.4,321z"/>
				<path class="st10" d="M303.1,172.1c-9.2-3.6-16.6-1.7-21.7,1.3c-1.3-3.7-2.7-7.3-4.3-10.9c-1.2-2.6-2.5-5.2-3.9-7.7
					c-14.1-25.8-37.9-47.3-65.1-56.4l-0.5-14.7l-17.6,10.6c-0.7-0.1-1.4-0.2-2.1-0.2c-1.3-0.1-2.6-0.2-3.9-0.3l-2.6-11.1l-0.8-3.2
					c-0.9,0-1.7,0-2.6,0.1c-16.4,1.3-24.6,16.3-25.9,18.8c-27.3,9.1-51,30.5-65.1,56.4c-1.4,2.5-2.7,5.1-3.9,7.7
					c-1.6,3.6-3.1,7.2-4.3,10.9c-0.2-0.1-0.4-0.3-0.7-0.4c-5.1-2.7-12.2-4.3-21-0.9c-19.4,7.5-24.6,39.5-8.9,59.4
					c6.4,8.1,13.2,12.6,19.7,14.5c-0.1,0.4-0.2,0.7-0.2,1.1c-1.2,5.3-1.8,10.8-1.8,16.3c0,38.1,28.1,70.8,68.3,85.2
					c9.2,3.3,19,5.6,29.2,6.8c5.1,0.6,10.3,0.9,15.6,1c0.4,0,0.8,0,1.2,0c63.1,0,114.3-41.7,114.3-93.1c0-5.6-0.6-11-1.8-16.3
					c-0.1-0.4-0.2-0.7-0.2-1.1c6.5-2,13.3-6.4,19.7-14.5C327.8,211.6,322.5,179.6,303.1,172.1z M76.7,180.1
					c-2.3,8.4-3.5,16.9-3.5,25.4c0,0.6,0,1.2,0,1.8c0.1,10.4-1.2,20.7-3.5,30.9c-4.8-1.7-9.7-5.1-14.4-11.1
					c-12.4-15.7-8.3-40.8,7-46.8C68.1,178.1,72.9,178.6,76.7,180.1C76.7,180.1,76.7,180.1,76.7,180.1z M260.2,233.2
					c-0.8,1.8-1.8,3.6-2.9,5.3c-4.5,7-5.7,15.8-3,23.7c2,6,3.9,12.8,3.9,17.8c0,36.9-34.9,66.7-78,66.7s-78-29.9-78-66.7
					c0-5,1.8-11.8,3.9-17.8c2.7-7.9,1.5-16.7-3-23.7c-1.1-1.7-2-3.5-2.9-5.3c-2.5-5.4-3.9-11.4-3.9-17.7c0-24.5,20.8-44.3,46.5-44.3
					c8.7,0,16.8,2.3,23.7,6.2c8.5,4.8,18.8,4.8,27.4,0c6.9-3.9,15-6.2,23.7-6.2c25.7,0,46.6,19.8,46.6,44.3
					C264,221.8,262.7,227.8,260.2,233.2z M304.9,227.1c-4.7,5.9-9.6,9.4-14.4,11.1c-2.3-10.1-3.6-20.5-3.5-30.9c0-0.6,0-1.2,0-1.8
					c0-8.5-1.2-17.1-3.5-25.5c3.8-1.5,8.6-1.9,14.4,0.3C313.1,186.3,317.3,211.4,304.9,227.1z"/>
				<g>
					<path class="st12" d="M176.2,262l-0.1,0.2c-0.8,1.8-3,2.6-4.8,1.8l-8.9-4.1c-1.8-0.8-2.6-3-1.8-4.8l0.1-0.2
						c0.8-1.8,3-2.6,4.8-1.8l8.9,4.1C176.3,258.1,177.1,260.2,176.2,262z"/>
					<path class="st12" d="M184,262l0.1,0.2c0.8,1.8,3,2.6,4.8,1.8l8.9-4.1c1.8-0.8,2.6-3,1.8-4.8l-0.1-0.2c-0.8-1.8-3-2.6-4.8-1.8
						l-8.9,4.1C184,258.1,183.2,260.2,184,262z"/>
				</g>
			</g>
			<g>
				<path class="st12" d="M140,233.2L140,233.2c-7.4,0-13.4-5.7-13.4-12.7v-4.2c0-7,6-12.7,13.4-12.7l0,0c7.4,0,13.4,5.7,13.4,12.7
					v4.2C153.4,227.6,147.4,233.2,140,233.2z"/>
				<path class="st14" d="M140,203.7v14.8c0,3.5,3,6.3,6.7,6.3c3.7,0,6.7-2.8,6.7-6.3v-2.1C153.4,209.4,147.4,203.7,140,203.7z"/>
			</g>
			<path class="st16" d="M181.3,82.7c-3-0.3-9.5,4.4-17.4,12.6c-2,2-4,4.3-6.1,6.7c-15.4,18-33.2,46.4-39.3,75.6
				c-10.2,48.9-14.4,105.7,3.7,137.2c15.3,26.7,41,40.7,41,40.7c-10.2-1.2-20-3.6-29.2-6.8c-40.2-14.4-68.3-47.1-68.3-85.2
				c0-5.6,0.6-11,1.8-16.3c0.1-0.4,0.2-0.7,0.2-1.1c-6.5-2-13.3-6.4-19.7-14.5c-15.7-19.9-10.5-51.9,8.9-59.4
				c8.8-3.4,15.9-1.8,21,0.9c0.2,0.1,0.4,0.2,0.7,0.4c1.3-3.7,2.7-7.3,4.3-10.9c1.2-2.6,2.5-5.2,3.9-7.7
				c14.1-25.8,37.9-47.3,65.1-56.4c1.3-2.6,9.4-17.5,25.9-18.8c0.8-0.1,1.7-0.1,2.6-0.1L181.3,82.7z"/>
		</g>
	</g>
	<g>
		<defs>
			<rect id="SVGID_27_" x="37.2" y="279.8" transform="matrix(0.866 -0.5 0.5 0.866 -144.3645 77.9024)" width="72" height="57"/>
		</defs>
		<clipPath id="SVGID_3_">
			<use xlink:href="#SVGID_27_"  style="overflow:visible;"/>
		</clipPath>
		<g class="st17">
			<path class="st5" d="M92.2,276.3l-3.9,1.9l-3.7-7.7c-0.4-0.8,0-1.7,0.7-2.1l1-0.5c0.8-0.4,1.7,0,2.1,0.8L92.2,276.3z"/>
			<path class="st6" d="M92.2,276.3l-1.9,0.9l-4.4-9.1l0.5-0.3c0.8-0.4,1.7,0,2.1,0.8L92.2,276.3z"/>
			<path class="st7" d="M97.2,277.9c2,3.5,3.5,7.4,4.4,11.6c5.3,23.5-9.4,46.7-32.8,52c-4.2,0.9-8.3,1.2-12.4,1
				c-0.3,0-3.1-0.4-5.3-1.8c-1.1-0.7-2.1-1.6-2.5-2.8l0,0c-0.1-0.1-0.1-0.3-0.1-0.4c0-0.1,0-0.3,0-0.4c0.1-1.1,1-2.2,2.5-3.3
				c3.1-2.3,8.2-4.2,10.2-5.2l0,0c0.5-0.2,1-0.5,1.5-0.7c0,0,0.1,0,0.1,0c0.6-0.3,1.1-0.6,1.6-0.9c0.2-0.1,0.3-0.2,0.5-0.3
				c0.1-0.1,0.3-0.2,0.4-0.2c0.1-0.1,0.3-0.2,0.4-0.2c0.2-0.1,0.4-0.2,0.6-0.3c0.4-0.2,0.7-0.4,1-0.7c0.2-0.1,0.4-0.3,0.6-0.4
				c0.5-0.4,1.1-0.8,1.6-1.2c0.2-0.1,0.3-0.3,0.5-0.4c0.2-0.1,0.3-0.3,0.5-0.4c0.5-0.4,0.9-0.8,1.4-1.2c0,0,0.1,0,0.1-0.1l0.1-0.1
				c0.7-0.6,1.3-1.2,1.9-1.8c0.6-0.6,1.2-1.2,1.7-1.8c0.1-0.1,0.2-0.2,0.2-0.2l0.1-0.1c0.4-0.4,0.7-0.8,1.1-1.3
				c0-0.1,0.1-0.1,0.1-0.1c0-0.1,0.1-0.1,0.1-0.2c1-1.2,1.9-2.6,2.7-3.9c0.2-0.2,0.3-0.5,0.5-0.8c0.1-0.3,0.3-0.5,0.4-0.8
				c0,0,0-0.1,0.1-0.1c0.1-0.1,0.2-0.3,0.2-0.4c0.2-0.4,0.5-0.8,0.7-1.3c0.1-0.2,0.2-0.4,0.3-0.7c0.2-0.3,0.3-0.7,0.5-1
				c0.1-0.1,0.1-0.3,0.2-0.4c0.2-0.4,0.4-0.9,0.6-1.4c0.8-2.1,1.5-4.3,2-6.5c0,0,0-0.1,0-0.1c0.2-0.9,0.3-1.7,0.5-2.6
				c0.1-0.4,0.1-0.8,0.2-1.2c0-0.3,0.1-0.7,0.1-1c0-0.1,0-0.1,0-0.2c0.1-0.7,0.1-1.4,0.2-2.1c0.2-3.9-0.1-7.9-1-11.8
				c-0.1-0.4-0.2-0.9-0.3-1.3c0,0,0-0.1,0-0.3c0-0.1,0-0.1,0-0.2c0,0,0-0.1,0-0.1c0,0,0-0.1,0-0.1c0-0.8,0.2-2,1.1-3.1
				c0.6-0.8,1.6-1.5,3-1.9c1.4-0.4,2.7,0.1,3.8,0.9C95,274.4,96.4,276.6,97.2,277.9z"/>
			<path class="st8" d="M89.3,272.3C89.3,272.3,89.3,272.3,89.3,272.3c2,3.4,3.5,7.1,4.6,11c0.2,0.5,0.3,1,0.4,1.6
				c5.3,23.4-9.4,46.7-32.8,52c-3.5,0.8-6.9,1.1-10.4,1c-0.5,0-1,0-1.5-0.1c-0.3,0-0.6,0-1-0.1c-0.1-0.2-0.1-0.3-0.1-0.4
				c0-0.1,0-0.3,0-0.4c0.1-1.1,1-2.2,2.5-3.3c3.1-2.3,8.2-4.2,10.2-5.2l0,0c0.5-0.2,1-0.5,1.5-0.7c0,0,0.1,0,0.1,0
				c0.6-0.3,1.1-0.6,1.6-0.9c0.1,0,0.1-0.1,0.1-0.1c0.1-0.1,0.2-0.1,0.3-0.2c0.1-0.1,0.3-0.2,0.4-0.2c0.1-0.1,0.3-0.2,0.4-0.2
				c0.2-0.1,0.4-0.2,0.6-0.3c0.4-0.2,0.7-0.4,1-0.7c0.2-0.1,0.4-0.3,0.6-0.4c0.3-0.2,0.7-0.5,1-0.7c0.2-0.2,0.4-0.3,0.6-0.4
				c0.2-0.1,0.3-0.3,0.5-0.4c0.2-0.1,0.3-0.3,0.5-0.4c0.5-0.4,0.9-0.8,1.4-1.2c0,0,0.1,0,0.1-0.1l0.1-0.1c0.1-0.1,0.2-0.2,0.4-0.3
				c0.5-0.5,1.1-1,1.6-1.5c0.5-0.5,1-1,1.5-1.6c0.1-0.1,0.2-0.2,0.2-0.2s0.2-0.2,0.2-0.2l0.1-0.1c0.2-0.3,0.4-0.5,0.6-0.8
				c0.1-0.1,0.3-0.3,0.4-0.5c0-0.1,0.1-0.1,0.1-0.1c0-0.1,0.1-0.1,0.1-0.2c0.2-0.2,0.4-0.5,0.6-0.7c0.1-0.2,0.3-0.4,0.4-0.6
				c0.1-0.1,0.1-0.2,0.2-0.2c0.2-0.2,0.3-0.5,0.6-0.8c0.2-0.2,0.3-0.5,0.5-0.7c0.2-0.3,0.4-0.6,0.6-0.9c0.2-0.3,0.3-0.5,0.5-0.8
				c0.1-0.3,0.3-0.5,0.4-0.8c0,0,0-0.1,0.1-0.1c0.1-0.1,0.2-0.3,0.2-0.4c0.2-0.4,0.5-0.8,0.7-1.3c0.1-0.2,0.2-0.4,0.3-0.7
				c0.2-0.3,0.3-0.7,0.5-1c0.1-0.1,0.1-0.3,0.2-0.4c0.1-0.1,0.1-0.3,0.2-0.4c0.1-0.3,0.3-0.7,0.4-1c0.1-0.3,0.2-0.6,0.3-0.9
				c0.1-0.3,0.3-0.7,0.4-1c0-0.2,0.1-0.4,0.2-0.5c0-0.1,0.1-0.3,0.1-0.4c0.1-0.3,0.2-0.6,0.3-0.9c0.1-0.3,0.2-0.6,0.3-1
				c0.1-0.3,0.1-0.5,0.2-0.8c0.1-0.4,0.2-0.7,0.3-1.1c0,0,0-0.1,0-0.1c0.1-0.3,0.1-0.7,0.2-1.1c0-0.2,0.1-0.5,0.1-0.7
				c0.1-0.3,0.1-0.6,0.1-0.9c0-0.3,0.1-0.5,0.1-0.7c0-0.2,0-0.3,0.1-0.5c0-0.3,0.1-0.7,0.1-1c0-0.1,0-0.1,0-0.2
				c0-0.3,0.1-0.5,0.1-0.8c0-0.2,0-0.4,0-0.7c0-0.2,0-0.4,0-0.7c0-0.3,0-0.6,0-1c0-0.2,0-0.3,0-0.5c0-0.4,0-0.8,0-1.3
				c0-0.3,0-0.6,0-0.8c0-0.4,0-0.8-0.1-1.2c0-0.3,0-0.6-0.1-0.8c0-0.4-0.1-0.8-0.1-1.3c0-0.3-0.1-0.5-0.1-0.8
				c-0.1-0.5-0.1-0.9-0.2-1.4c0-0.2-0.1-0.4-0.1-0.5c0-0.1,0-0.1-0.1-0.2c-0.1-0.6-0.3-1.3-0.4-2c-0.1-0.4-0.2-0.9-0.3-1.3
				c0,0,0-0.1,0-0.3c0-0.1,0-0.1,0-0.2c0,0,0-0.1,0-0.1c0,0,0-0.1,0-0.1c0-0.8,0.2-2,1.1-3.1C86.9,273.4,87.8,272.7,89.3,272.3z"/>
			<path class="st6" d="M51,333.6c-1.1,2.4-1.2,4.7,0.2,7c-1.1-0.7-2.1-1.6-2.5-2.8l0,0c-0.1-0.2-0.1-0.3-0.1-0.4c0-0.1,0-0.3,0-0.4
				C48.6,335.8,49.6,334.7,51,333.6z"/>
			<path class="st5" d="M51,333.6c-0.7,1.4-1,2.8-0.8,4.2c-0.2,0-0.4,0-0.6,0c-0.3,0-0.6,0-0.9-0.1c-0.1-0.2-0.1-0.3-0.1-0.4
				c0-0.1,0-0.3,0-0.4C48.6,335.8,49.6,334.7,51,333.6z"/>
		</g>
	</g>
	<g>
		<g>
			<g>
				<path class="st12" d="M169.8,196.5v6c0,25.5-18.9,46.5-43.5,49.8c-2.2,0.3-4.4,0.5-6.7,0.5c-5.8,0-11.4-1-16.6-2.8
					c-1.7-0.6-3.4-1.3-5-2c-2.1-1-4.1-2.1-6.1-3.4c-1.6-1.1-3.2-2.2-4.7-3.5c-3.4-2.8-6.3-6.1-8.8-9.7c-5.7-8.2-9.1-18.1-9.1-28.9
					v-6c0-0.9,0.7-1.6,1.6-1.6h97.2C169.1,194.9,169.8,195.6,169.8,196.5z"/>
			</g>
			<g>
				<path class="st12" d="M290.9,196.5v6c0,25-18.3,45.8-42.2,49.6c-2.6,0.4-5.3,0.7-8,0.7c-2.1,0-4.3-0.1-6.3-0.4
					c-2-0.2-4-0.6-6-1.1c-2.3-0.6-4.5-1.3-6.7-2.2c-1.7-0.7-3.3-1.5-4.9-2.3c-6.6-3.6-12.3-8.6-16.7-14.6
					c-6.1-8.3-9.7-18.6-9.7-29.6v-6c0-0.9,0.7-1.6,1.7-1.6h97.2C290.2,194.9,290.9,195.6,290.9,196.5z"/>
			</g>
		</g>
		<g class="st18">
			<g>
				<path class="st12" d="M169.5,198.7v6c0,25.5-18.9,46.5-43.5,49.8c-2.2,0.3-4.4,0.5-6.7,0.5c-5.8,0-11.4-1-16.6-2.8
					c-1.7-0.6-3.4-1.3-5-2c-2.1-1-4.1-2.1-6.1-3.4c-1.6-1.1-3.2-2.2-4.7-3.5c-3.4-2.8-6.3-6.1-8.8-9.7c-5.7-8.2-9.1-18.1-9.1-28.9
					v-6c0-0.9,0.7-1.6,1.6-1.6h97.2C168.8,197,169.5,197.8,169.5,198.7z"/>
			</g>
			<g>
				<path class="st12" d="M290.6,198.7v6c0,25-18.3,45.8-42.2,49.6c-2.6,0.4-5.3,0.7-8,0.7c-2.1,0-4.3-0.1-6.3-0.4
					c-2-0.2-4-0.6-6-1.1c-2.3-0.6-4.5-1.3-6.7-2.2c-1.7-0.7-3.3-1.5-4.9-2.3c-6.6-3.6-12.3-8.6-16.7-14.6
					c-6.1-8.3-9.7-18.6-9.7-29.6v-6c0-0.9,0.7-1.6,1.7-1.6H289C289.9,197,290.6,197.8,290.6,198.7z"/>
			</g>
		</g>
		<g>
			<rect x="163.1" y="202.3" class="st12" width="34" height="10.7"/>
		</g>
		<g>
			<g>
				<path class="st15" d="M111.6,194.9L87.2,241c-3.4-2.8-6.3-6.1-8.8-9.7l19.2-36.5H111.6z"/>
			</g>
			<g>
				<path class="st15" d="M125.9,194.9l-28,53c-2.1-1-4.1-2.1-6.1-3.4l26.2-49.6H125.9z"/>
			</g>
		</g>
		<g>
			<g>
				<path class="st15" d="M232.7,194.9L208.4,241c-3.4-2.8-6.3-6.1-8.8-9.7l19.2-36.5H232.7z"/>
			</g>
			<g>
				<path class="st15" d="M247,194.9l-28,53c-2.1-1-4.1-2.1-6.1-3.4l26.2-49.6H247z"/>
			</g>
		</g>
	</g>
</g>
</svg>
